# xmcd
#
# Track frame offsets: 
#        150
#        18942
#        30148
#        44045
#        60063
#        82017
#
# Disc length: 1271 seconds
#
# Revision: 0
# Processed by: cddbd v1.5.2PL0 Copyright (c) Steve Scherf et al.
# Submitted via: ExactAudioCopy v0.99pb5
#
DISCID=3904f506
DTITLE=Sadie and the Blue-Eyed Devils - À la Road
DYEAR=2013
DGENRE=Folk
TTITLE0=The Pros and Cons (of Being an Angel)
TTITLE1=Whiskey Drinkin' Man
TTITLE2=Poor Little Petey's Got the Ol' Black Lung
TTITLE3=45
TTITLE4=Kiss the Cuts (Disco No. 6 for Charles Bukowski)
TTITLE5=I'm Nobody's Baby (& You Ain't Nobody's Fool)
EXTD=
EXTT0=
EXTT1=
EXTT2=
EXTT3=
EXTT4=
EXTT5=
PLAYORDER=
